{
  "accessors": [
    {
      "bufferView": 2,
      "componentType": 5126,
      "count": 28652,
      "max": [
        1.0009595155715942,
        0.35438269376754761,
        1.0010037422180176
      ],
      "min": [
        -1.0011968612670898,
        -0.0012499999720603228,
        -1.0011578798294067
      ],
      "type": "VEC3"
    },
    {
      "bufferView": 2,
      "byteOffset": 343824,
      "componentType": 5126,
      "count": 28652,
      "max": [
        0.99999862909317017,
        0.99982249736785889,
        0.9999658465385437
      ],
      "min": [
        -0.9999842643737793,
        -0.99629867076873779,
        -0.99989420175552368
      ],
      "type": "VEC3"
    },
    {
      "bufferView": 1,
      "componentType": 5126,
      "count": 28652,
      "max": [
        1,
        1
      ],
      "min": [
        0,
        0
      ],
      "type": "VEC2"
    },
    {
      "bufferView": 0,
      "componentType": 5125,
      "count": 46128,
      "max": [
        28651
      ],
      "min": [
        0
      ],
      "type": "SCALAR"
    },
    {
      "bufferView": 2,
      "byteOffset": 687648,
      "componentType": 5126,
      "count": 2878,
      "max": [
        1,
        0.35313299298286438,
        1
      ],
      "min": [
        -1,
        0,
        -1
      ],
      "type": "VEC3"
    },
    {
      "bufferView": 2,
      "byteOffset": 722184,
      "componentType": 5126,
      "count": 2878,
      "max": [
        0.94636160135269165,
        1,
        0.96484965085983276
      ],
      "min": [
        -0.96128511428833008,
        0.22744780778884888,
        -0.92935287952423096
      ],
      "type": "VEC3"
    },
    {
      "bufferView": 1,
      "byteOffset": 229216,
      "componentType": 5126,
      "count": 2878,
      "max": [
        1,
        1
      ],
      "min": [
        0,
        0
      ],
      "type": "VEC2"
    },
    {
      "bufferView": 0,
      "byteOffset": 184512,
      "componentType": 5125,
      "count": 5766,
      "max": [
        2877
      ],
      "min": [
        0
      ],
      "type": "SCALAR"
    }
  ],
  "asset": {
    "extras": {
      "author": "0418.rick (https://sketchfab.com/0418.rick)",
      "license": "CC-BY-4.0 (http://creativecommons.org/licenses/by/4.0/)",
      "source": "https://sketchfab.com/3d-models/vaporwave-mountains-655309efbf7647f9a6f573a1196cfdc9",
      "title": "Vaporwave Mountains"
    },
    "generator": "Sketchfab-7.44.0",
    "version": "2.0"
  },
  "bufferViews": [
    {
      "buffer": 0,
      "byteLength": 207576,
      "byteOffset": 0,
      "name": "floatBufferViews",
      "target": 34963
    },
    {
      "buffer": 0,
      "byteLength": 252240,
      "byteOffset": 207576,
      "byteStride": 8,
      "name": "floatBufferViews",
      "target": 34962
    },
    {
      "buffer": 0,
      "byteLength": 756720,
      "byteOffset": 459816,
      "byteStride": 12,
      "name": "floatBufferViews",
      "target": 34962
    }
  ],
  "buffers": [
    {
      "byteLength": 1216536,
      "uri": "scene.bin"
    }
  ],
  "materials": [
    {
      "doubleSided": true,
      "emissiveFactor": [
        0,
        0,
        0
      ],
      "name": "Material.001",
      "pbrMetallicRoughness": {
        "baseColorFactor": [
          0.011043692117762566,
          0.34593215422195683,
          0.71876352471969318,
          1
        ],
        "metallicFactor": 0.14195884146341464,
        "roughnessFactor": 0.56269054878048785
      }
    },
    {
      "doubleSided": true,
      "emissiveFactor": [
        0,
        0,
        0
      ],
      "name": "Material.002",
      "pbrMetallicRoughness": {
        "baseColorFactor": [
          0.10286909763063144,
          0,
          1,
          1
        ],
        "metallicFactor": 1,
        "roughnessFactor": 0.5
      }
    }
  ],
  "meshes": [
    {
      "primitives": [
        {
          "attributes": {
            "NORMAL": 1,
            "POSITION": 0,
            "TEXCOORD_0": 2
          },
          "indices": 3,
          "material": 0,
          "mode": 4
        }
      ]
    },
    {
      "primitives": [
        {
          "attributes": {
            "NORMAL": 5,
            "POSITION": 4,
            "TEXCOORD_0": 6
          },
          "indices": 7,
          "material": 1,
          "mode": 4
        }
      ]
    }
  ],
  "nodes": [
    {
      "children": [
        1
      ],
      "name": "RootNode (gltf orientation matrix)",
      "rotation": [
        -0.70710678118654746,
        -0,
        -0,
        0.70710678118654757
      ]
    },
    {
      "children": [
        2
      ],
      "name": "RootNode (model correction matrix)"
    },
    {
      "children": [
        3
      ],
      "name": "root"
    },
    {
      "children": [
        4,
        6
      ],
      "matrix": [
        1,
        0,
        0,
        0,
        0,
        2.2204460492503131e-16,
        1,
        0,
        0,
        -1,
        2.2204460492503131e-16,
        0,
        0,
        0,
        0,
        1
      ],
      "name": "GLTF_SceneRootNode"
    },
    {
      "children": [
        5
      ],
      "matrix": [
        8,
        0,
        0,
        0,
        0,
        8,
        0,
        0,
        0,
        0,
        8,
        0,
        0,
        0,
        0,
        1
      ],
      "name": "Plane_2"
    },
    {
      "mesh": 0,
      "name": ""
    },
    {
      "children": [
        7
      ],
      "matrix": [
        8,
        0,
        0,
        0,
        0,
        8,
        0,
        0,
        0,
        0,
        8,
        0,
        0,
        0,
        0,
        1
      ],
      "name": "Plane.001_3"
    },
    {
      "mesh": 1,
      "name": ""
    }
  ],
  "scene": 0,
  "scenes": [
    {
      "name": "OSG_Scene",
      "nodes": [
        0
      ]
    }
  ]
}

